<!-- Generator: Adobe Illustrator 21.0.2, SVG Export Plug-In  -->
<svg version="1.1"
	 xmlns="http://www.w3.org/2000/svg" xmlns:xlink="http://www.w3.org/1999/xlink" xmlns:a="http://ns.adobe.com/AdobeSVGViewerExtensions/3.0/"
	 x="0px" y="0px" width="35.177px" height="27.324px" viewBox="0 0 35.177 27.324"
	 style="enable-background:new 0 0 35.177 27.324;" xml:space="preserve">
<style type="text/css">
	.st0{fill:#929292;}
	.st1{fill:url(#SVGID_1_);}
	.st2{fill:url(#SVGID_2_);}
	.st3{fill:url(#SVGID_3_);}
	.st4{fill:url(#SVGID_4_);}
</style>
<defs>
</defs>
<g>
	<path class="st0" d="M26.421,0c-0.407,0-0.808,0.028-1.2,0.082V0.078C17.356,1.105,9.492,6.251,1.627,2.782
		C0.732,2.39,0,2.667,0,3.564c0,5,0,10,0,15.001c0,4.838,3.92,8.76,8.756,8.76c0.371,0,0.737-0.023,1.096-0.068v0.003
		c7.899-0.994,15.799-6.202,23.698-2.717c0.895,0.391,1.627,0.114,1.627-0.782c0-5.001,0-10.001,0-15.002
		C35.176,3.921,31.256,0,26.421,0z"/>
	<g>
		<g>
			<linearGradient id="SVGID_1_" gradientUnits="userSpaceOnUse" x1="4.5423" y1="26.7356" x2="21.0299" y2="10.248">
				<stop  offset="0" style="stop-color:#AD297D"/>
				<stop  offset="1" style="stop-color:#FF2A62"/>
			</linearGradient>
			<path class="st1" d="M0,3.564c0,5,0,10,0,15.001c0,4.838,3.92,8.76,8.756,8.76c0.371,0,0.737-0.023,1.096-0.068v0.003
				c7.899-0.994,15.799-6.202,23.698-2.717c0.687,0.3,1.278,0.207,1.515-0.259L0.113,3.039C0.041,3.18,0,3.355,0,3.564z"/>
		</g>
		<linearGradient id="SVGID_2_" gradientUnits="userSpaceOnUse" x1="11.728" y1="19.5211" x2="30.6475" y2="0.6016">
			<stop  offset="0" style="stop-color:#0040A1"/>
			<stop  offset="1" style="stop-color:#7E45E9"/>
		</linearGradient>
		<path class="st2" d="M26.42,0c-0.407,0-0.808,0.028-1.2,0.082V0.079C17.356,1.105,9.491,6.251,1.627,2.782
			C0.936,2.48,0.348,2.567,0.113,3.039l17.48,22.347c5.319-1.596,10.637-3.19,15.956-0.843c0.895,0.391,1.627,0.114,1.627-0.782
			c0-5.001,0-10.001,0-15.002C35.176,3.922,31.256,0,26.42,0z"/>
	</g>
</g>
</svg>